<?xml version="1.0" encoding="UTF-8" standalone="no"?>
<svg
   viewBox="0 0 36 36"
   version="1.1"
   id="svg8"
   sodipodi:docname="fishing_pole.svg"
   inkscape:version="1.3.2 (091e20e, 2023-11-25, custom)"
   xmlns:inkscape="http://www.inkscape.org/namespaces/inkscape"
   xmlns:sodipodi="http://sodipodi.sourceforge.net/DTD/sodipodi-0.dtd"
   xmlns="http://www.w3.org/2000/svg"
   xmlns:svg="http://www.w3.org/2000/svg">
  <defs
     id="defs8" />
  <sodipodi:namedview
     id="namedview8"
     pagecolor="#ffffff"
     bordercolor="#000000"
     borderopacity="0.25"
     inkscape:showpageshadow="2"
     inkscape:pageopacity="0.0"
     inkscape:pagecheckerboard="0"
     inkscape:deskcolor="#d1d1d1"
     inkscape:zoom="22.388889"
     inkscape:cx="18"
     inkscape:cy="17.977667"
     inkscape:window-width="1920"
     inkscape:window-height="1009"
     inkscape:window-x="-8"
     inkscape:window-y="-8"
     inkscape:window-maximized="1"
     inkscape:current-layer="svg8" />
  <path
     fill="#CCD6DD"
     d="M8 16c-.552 0-1-.448-1-1V4c0-.552.448-1 1-1s1 .448 1 1v11c0 .552-.448 1-1 1z"
     id="path1" />
  <path
     fill="#662113"
     d="M29.834 35.25c-.494-.247-1.042-.958-.729-1.697 1.334-3.146 4.278-16.9 1.604-24.761-.501-1.472-2.118-3.659-4.08-4.863C20.292.042 10.823 2.171 9.5 2.833c-.495.248-2.044.744-2.292.25-.247-.494.589-1.003 1.083-1.25 1.756-.877 11.264-3.878 19.667.791 1.5.833 3.59 2.376 4.703 5.303 3.257 8.567 1.047 23.416-.787 26.822-.582 1.084-1.896.572-2.04.501z"
     id="path7" />
  <circle
     fill="#99AAB5"
     cx="28"
     cy="25"
     r="4"
     id="circle7" />
  <circle
     fill="#66757F"
     cx="28"
     cy="25"
     r="2"
     id="circle8" />
</svg>
